{"title":"Super 8 2011 BRRip XViD DTRG","uid":6764297,"size":1744316553,"categoryP":"video","categoryS":"movies","magnet":"?xt=urn:btih:7367ffb2a2e4c6d9baaa668684073643fb17ba5a&amp;dn=Super+8+2011+BRRip+XViD+DTRG&amp;tr=udp%3A%2F%2Ftracker.openbittorrent.com%3A80&amp;tr=udp%3A%2F%2Fopen.demonii.com%3A1337&amp;tr=udp%3A%2F%2Ftracker.coppersurfer.tk%3A6969&amp;tr=udp%3A%2F%2Fexodus.desync.com%3A6969","seeders":0,"leechers":0,"uploader":"SAFCukO09","files":3,"time":1319313291,"description":"Format : AVI\nFormat/Info : Audio Video Interleave\nFile size : 1.62 GiB\nDuration : 1h 51mn\nOverall bit rate : 2 080 Kbps\nWriting application : VirtualDubMod 1.5.10.2 (build 2540/release)\nWriting library : VirtualDubMod build 2540/release\n\nVideo\nID : 0\nFormat : MPEG-4 Visual\nFormat profile : Advanced Simple@L5\nFormat settings, BVOP : 2\nFormat settings, QPel : No\nFormat settings, GMC : No warppoints\nFormat settings, Matrix : Default (H.263)\nMuxing mode : Packed bitstream\nCodec ID : XVID\nCodec ID/Hint : XviD\nDuration : 1h 51mn\nBit rate : 1 623 Kbps\nWidth : 720 pixels\nHeight : 304 pixels\nDisplay aspect ratio : 2.35:1\nFrame rate : 23.976 fps\nColor space : YUV\nChroma subsampling : 4:2:0\nBit depth : 8 bits\nScan type : Progressive\nCompression mode : Lossy\nBits/(Pixel*Frame) : 0.309\nStream size : 1.27 GiB (78%)\nWriting library : XviD 64\n\nAudio\nID : 1\nFormat : AC-3\nFormat/Info : Audio Coding 3\nMode extension : CM (complete main)\nCodec ID : 2000\nDuration : 1h 51mn\nBit rate mode : Constant\nBit rate : 448 Kbps\nChannel(s) : 6 channels\nChannel positions : Front: L C R, Side: L R, LFE\nSampling rate : 48.0 KHz\nBit depth : 16 bits\nCompression mode : Lossy\nStream size : 358 MiB (22%)\nAlignment : Split accross interleaves\nInterleave, duration : 42 ms (1.00 video frame)\nInterleave, preload duration : 500 ms\n\n\n\n\n\n\n\n\n\n &lt;a href=&quot;\nhttp://www.imdb.com/title/tt1650062/&quot; rel=&quot;nofollow&quot; target=&quot;_NEW&quot;&gt;\nhttp://www.imdb.com/title/tt1650062/&lt;/a&gt;\n\n\n\n\nRatings: 7.4/10 from 67,129 users Metascore: 72/100\nReviews: 581 user | 392 critic | 41 from Metacritic.com\n\nDuring the summer of 1979, a group of friends witness a train crash and investigate subsequent unexplained events in their small town.\n\n\n\n\n\n\n\n\n\n\n\n\n\n\n\n\n\n\nSource Used\n\nSuper.8.2011.BluRay.720p.x264.DTS-HDChina ...Thanks\n\nApologies no sample give a guy a break :-) im ill thats why so late on this\n\n\nEnjoy\n\n\n\n\n\nGreetz to IMAGiNE,Flawl3ss,BDK,Ez,Rx,CreWsaDe,TaRiQ786,ETRG,BHRG,iLLUMiNATi\n","torrent":{"xt":"urn:btih:7367ffb2a2e4c6d9baaa668684073643fb17ba5a","amp;dn":"Super+8+2011+BRRip+XViD+DTRG","amp;tr":["udp%3A%2F%2Ftracker.openbittorrent.com%3A80","udp%3A%2F%2Fopen.demonii.com%3A1337","udp%3A%2F%2Ftracker.coppersurfer.tk%3A6969","udp%3A%2F%2Fexodus.desync.com%3A6969"],"infoHash":"7367ffb2a2e4c6d9baaa668684073643fb17ba5a","infoHashBuffer":{"type":"Buffer","data":[115,103,255,178,162,228,198,217,186,170,102,134,132,7,54,67,251,23,186,90]},"announce":[],"urlList":[]}}